<mxfile host="app.diagrams.net" modified="2022-08-28T03:36:19.328Z" agent="5.0 (Windows NT 10.0; Win64; x64) AppleWebKit/537.36 (KHTML, like Gecko) Chrome/104.0.0.0 Safari/537.36" etag="Fog5KM4EauwIbTm0Z5m_" version="20.2.7" type="github">
  <diagram name="Page-1" id="edf60f1a-56cd-e834-aa8a-f176f3a09ee4">
    <mxGraphModel dx="942" dy="574" grid="1" gridSize="10" guides="1" tooltips="1" connect="1" arrows="1" fold="1" page="1" pageScale="1" pageWidth="1100" pageHeight="850" background="none" math="0" shadow="0">
      <root>
        <mxCell id="0" />
        <mxCell id="1" parent="0" />
        <mxCell id="60e70716793133e9-31" style="edgeStyle=orthogonalEdgeStyle;rounded=0;html=1;labelBackgroundColor=none;startSize=5;endArrow=classicThin;endFill=1;endSize=5;jettySize=auto;orthogonalLoop=1;strokeWidth=1;fontFamily=Verdana;fontSize=8" parent="1" source="60e70716793133e9-2" target="60e70716793133e9-5" edge="1">
          <mxGeometry relative="1" as="geometry">
            <Array as="points">
              <mxPoint x="437" y="210" />
              <mxPoint x="527" y="210" />
            </Array>
          </mxGeometry>
        </mxCell>
        <mxCell id="60e70716793133e9-2" value="手动新建" style="shape=trapezoid;whiteSpace=wrap;html=1;rounded=0;shadow=1;labelBackgroundColor=none;strokeWidth=1;fontFamily=Verdana;fontSize=8;align=center;flipV=1;" parent="1" vertex="1">
          <mxGeometry x="377" y="120" width="120" height="60" as="geometry" />
        </mxCell>
        <mxCell id="60e70716793133e9-32" style="edgeStyle=orthogonalEdgeStyle;rounded=0;html=1;labelBackgroundColor=none;startSize=5;endArrow=classicThin;endFill=1;endSize=5;jettySize=auto;orthogonalLoop=1;strokeWidth=1;fontFamily=Verdana;fontSize=8;entryX=0.5;entryY=0;entryDx=0;entryDy=0;" parent="1" source="60e70716793133e9-4" target="60e70716793133e9-8" edge="1">
          <mxGeometry relative="1" as="geometry">
            <Array as="points">
              <mxPoint x="627" y="210" />
              <mxPoint x="527" y="210" />
            </Array>
          </mxGeometry>
        </mxCell>
        <mxCell id="60e70716793133e9-4" value="自动创建" style="rounded=0;whiteSpace=wrap;html=1;shadow=1;labelBackgroundColor=none;strokeWidth=1;fontFamily=Verdana;fontSize=8;align=center;" parent="1" vertex="1">
          <mxGeometry x="567" y="120" width="120" height="60" as="geometry" />
        </mxCell>
        <mxCell id="60e70716793133e9-37" value="No" style="edgeStyle=orthogonalEdgeStyle;rounded=0;html=1;labelBackgroundColor=none;startSize=5;endArrow=classicThin;endFill=1;endSize=5;jettySize=auto;orthogonalLoop=1;strokeWidth=1;fontFamily=Verdana;fontSize=8" parent="1" target="60e70716793133e9-9" edge="1">
          <mxGeometry x="-0.5" y="10" relative="1" as="geometry">
            <mxPoint as="offset" />
            <mxPoint x="477" y="339" as="sourcePoint" />
          </mxGeometry>
        </mxCell>
        <mxCell id="AVPFRLGWjPQjqoDi6DAI-12" value="" style="edgeStyle=orthogonalEdgeStyle;rounded=0;orthogonalLoop=1;jettySize=auto;html=1;startArrow=none;" edge="1" parent="1" source="AVPFRLGWjPQjqoDi6DAI-14" target="AVPFRLGWjPQjqoDi6DAI-7">
          <mxGeometry relative="1" as="geometry" />
        </mxCell>
        <mxCell id="60e70716793133e9-5" value="自动提交" style="rhombus;whiteSpace=wrap;html=1;rounded=0;shadow=1;labelBackgroundColor=none;strokeWidth=1;fontFamily=Verdana;fontSize=8;align=center;" parent="1" vertex="1">
          <mxGeometry x="477" y="310" width="100" height="60" as="geometry" />
        </mxCell>
        <mxCell id="60e70716793133e9-8" value="提交" style="rounded=1;whiteSpace=wrap;html=1;shadow=1;labelBackgroundColor=none;strokeWidth=1;fontFamily=Verdana;fontSize=8;align=center;" parent="1" vertex="1">
          <mxGeometry x="477" y="240" width="100" height="40" as="geometry" />
        </mxCell>
        <mxCell id="AVPFRLGWjPQjqoDi6DAI-11" style="edgeStyle=orthogonalEdgeStyle;rounded=0;orthogonalLoop=1;jettySize=auto;html=1;exitX=1;exitY=0.5;exitDx=0;exitDy=0;entryX=0;entryY=0.5;entryDx=0;entryDy=0;" edge="1" parent="1" source="60e70716793133e9-9" target="AVPFRLGWjPQjqoDi6DAI-7">
          <mxGeometry relative="1" as="geometry">
            <Array as="points">
              <mxPoint x="447" y="469" />
              <mxPoint x="447" y="469" />
            </Array>
          </mxGeometry>
        </mxCell>
        <mxCell id="60e70716793133e9-9" value="已提交待审核" style="whiteSpace=wrap;html=1;rounded=0;shadow=1;labelBackgroundColor=none;strokeWidth=1;fontFamily=Verdana;fontSize=8;align=center;" parent="1" vertex="1">
          <mxGeometry x="297" y="449" width="120" height="40" as="geometry" />
        </mxCell>
        <mxCell id="AVPFRLGWjPQjqoDi6DAI-3" style="rounded=0;orthogonalLoop=1;jettySize=auto;html=1;exitX=0.5;exitY=1;exitDx=0;exitDy=0;entryX=0;entryY=0;entryDx=0;entryDy=0;" edge="1" parent="1" source="AVPFRLGWjPQjqoDi6DAI-1" target="60e70716793133e9-4">
          <mxGeometry relative="1" as="geometry" />
        </mxCell>
        <mxCell id="AVPFRLGWjPQjqoDi6DAI-1" value="分拣入库" style="whiteSpace=wrap;html=1;aspect=fixed;" vertex="1" parent="1">
          <mxGeometry x="487" width="80" height="80" as="geometry" />
        </mxCell>
        <mxCell id="AVPFRLGWjPQjqoDi6DAI-4" style="edgeStyle=none;rounded=0;orthogonalLoop=1;jettySize=auto;html=1;exitX=1;exitY=1;exitDx=0;exitDy=0;entryX=1;entryY=0;entryDx=0;entryDy=0;" edge="1" parent="1" source="AVPFRLGWjPQjqoDi6DAI-2" target="60e70716793133e9-4">
          <mxGeometry relative="1" as="geometry" />
        </mxCell>
        <mxCell id="AVPFRLGWjPQjqoDi6DAI-2" value="采购单据" style="whiteSpace=wrap;html=1;aspect=fixed;" vertex="1" parent="1">
          <mxGeometry x="667" width="80" height="80" as="geometry" />
        </mxCell>
        <mxCell id="AVPFRLGWjPQjqoDi6DAI-18" style="edgeStyle=orthogonalEdgeStyle;rounded=0;orthogonalLoop=1;jettySize=auto;html=1;" edge="1" parent="1" source="AVPFRLGWjPQjqoDi6DAI-7" target="AVPFRLGWjPQjqoDi6DAI-17">
          <mxGeometry relative="1" as="geometry" />
        </mxCell>
        <mxCell id="AVPFRLGWjPQjqoDi6DAI-7" value="待审核" style="whiteSpace=wrap;html=1;rounded=0;shadow=1;labelBackgroundColor=none;strokeWidth=1;fontFamily=Verdana;fontSize=8;align=center;" vertex="1" parent="1">
          <mxGeometry x="467" y="449" width="120" height="40" as="geometry" />
        </mxCell>
        <mxCell id="AVPFRLGWjPQjqoDi6DAI-10" value="提交" style="text;html=1;strokeColor=none;fillColor=none;align=center;verticalAlign=middle;whiteSpace=wrap;rounded=0;" vertex="1" parent="1">
          <mxGeometry x="407" y="439" width="60" height="30" as="geometry" />
        </mxCell>
        <mxCell id="AVPFRLGWjPQjqoDi6DAI-14" value="yes" style="text;html=1;strokeColor=none;fillColor=none;align=center;verticalAlign=middle;whiteSpace=wrap;rounded=0;" vertex="1" parent="1">
          <mxGeometry x="497" y="384" width="60" height="30" as="geometry" />
        </mxCell>
        <mxCell id="AVPFRLGWjPQjqoDi6DAI-15" value="" style="edgeStyle=orthogonalEdgeStyle;rounded=0;orthogonalLoop=1;jettySize=auto;html=1;endArrow=none;" edge="1" parent="1" target="AVPFRLGWjPQjqoDi6DAI-14">
          <mxGeometry relative="1" as="geometry">
            <mxPoint x="527" y="369" as="sourcePoint" />
            <mxPoint x="527" y="449" as="targetPoint" />
          </mxGeometry>
        </mxCell>
        <mxCell id="AVPFRLGWjPQjqoDi6DAI-20" style="edgeStyle=orthogonalEdgeStyle;rounded=0;orthogonalLoop=1;jettySize=auto;html=1;" edge="1" parent="1" source="AVPFRLGWjPQjqoDi6DAI-17">
          <mxGeometry relative="1" as="geometry">
            <mxPoint x="270" y="829" as="targetPoint" />
          </mxGeometry>
        </mxCell>
        <mxCell id="AVPFRLGWjPQjqoDi6DAI-27" style="edgeStyle=orthogonalEdgeStyle;rounded=0;orthogonalLoop=1;jettySize=auto;html=1;exitX=0.5;exitY=1;exitDx=0;exitDy=0;elbow=vertical;" edge="1" parent="1" source="AVPFRLGWjPQjqoDi6DAI-17" target="AVPFRLGWjPQjqoDi6DAI-23">
          <mxGeometry relative="1" as="geometry" />
        </mxCell>
        <mxCell id="AVPFRLGWjPQjqoDi6DAI-17" value="审核" style="rhombus;whiteSpace=wrap;html=1;rounded=0;shadow=1;labelBackgroundColor=none;strokeWidth=1;fontFamily=Verdana;fontSize=8;align=center;" vertex="1" parent="1">
          <mxGeometry x="477" y="569" width="100" height="60" as="geometry" />
        </mxCell>
        <mxCell id="AVPFRLGWjPQjqoDi6DAI-21" value="通过" style="text;html=1;strokeColor=none;fillColor=none;align=center;verticalAlign=middle;whiteSpace=wrap;rounded=0;" vertex="1" parent="1">
          <mxGeometry x="507" y="700" width="60" height="30" as="geometry" />
        </mxCell>
        <mxCell id="AVPFRLGWjPQjqoDi6DAI-22" value="不通过" style="text;html=1;strokeColor=none;fillColor=none;align=center;verticalAlign=middle;whiteSpace=wrap;rounded=0;" vertex="1" parent="1">
          <mxGeometry x="340" y="584" width="60" height="30" as="geometry" />
        </mxCell>
        <mxCell id="AVPFRLGWjPQjqoDi6DAI-30" style="edgeStyle=orthogonalEdgeStyle;rounded=0;orthogonalLoop=1;jettySize=auto;html=1;entryX=0.5;entryY=0;entryDx=0;entryDy=0;elbow=vertical;" edge="1" parent="1">
          <mxGeometry relative="1" as="geometry">
            <mxPoint x="527" y="894" as="sourcePoint" />
            <mxPoint x="390" y="984" as="targetPoint" />
            <Array as="points">
              <mxPoint x="527" y="934" />
              <mxPoint x="390" y="934" />
            </Array>
          </mxGeometry>
        </mxCell>
        <mxCell id="AVPFRLGWjPQjqoDi6DAI-32" style="edgeStyle=orthogonalEdgeStyle;rounded=0;orthogonalLoop=1;jettySize=auto;html=1;elbow=vertical;" edge="1" parent="1" source="AVPFRLGWjPQjqoDi6DAI-23">
          <mxGeometry relative="1" as="geometry">
            <mxPoint x="800" y="859" as="targetPoint" />
          </mxGeometry>
        </mxCell>
        <mxCell id="AVPFRLGWjPQjqoDi6DAI-23" value="已入库" style="rounded=1;whiteSpace=wrap;html=1;" vertex="1" parent="1">
          <mxGeometry x="467" y="829" width="120" height="60" as="geometry" />
        </mxCell>
        <mxCell id="AVPFRLGWjPQjqoDi6DAI-25" style="edgeStyle=orthogonalEdgeStyle;rounded=0;orthogonalLoop=1;jettySize=auto;html=1;entryX=0;entryY=0.5;entryDx=0;entryDy=0;exitX=0;exitY=0.5;exitDx=0;exitDy=0;" edge="1" parent="1" source="AVPFRLGWjPQjqoDi6DAI-24" target="60e70716793133e9-8">
          <mxGeometry relative="1" as="geometry">
            <mxPoint x="120" y="459" as="targetPoint" />
          </mxGeometry>
        </mxCell>
        <mxCell id="AVPFRLGWjPQjqoDi6DAI-29" style="edgeStyle=orthogonalEdgeStyle;rounded=0;orthogonalLoop=1;jettySize=auto;html=1;exitX=0.5;exitY=1;exitDx=0;exitDy=0;entryX=0.5;entryY=0;entryDx=0;entryDy=0;elbow=vertical;" edge="1" parent="1" source="AVPFRLGWjPQjqoDi6DAI-24" target="AVPFRLGWjPQjqoDi6DAI-28">
          <mxGeometry relative="1" as="geometry" />
        </mxCell>
        <mxCell id="AVPFRLGWjPQjqoDi6DAI-24" value="被驳回" style="rounded=1;whiteSpace=wrap;html=1;" vertex="1" parent="1">
          <mxGeometry x="210" y="829" width="120" height="60" as="geometry" />
        </mxCell>
        <mxCell id="AVPFRLGWjPQjqoDi6DAI-28" value="已删除" style="rounded=1;whiteSpace=wrap;html=1;" vertex="1" parent="1">
          <mxGeometry x="330" y="980" width="120" height="60" as="geometry" />
        </mxCell>
        <mxCell id="AVPFRLGWjPQjqoDi6DAI-31" value="删除" style="text;html=1;strokeColor=none;fillColor=none;align=center;verticalAlign=middle;whiteSpace=wrap;rounded=0;" vertex="1" parent="1">
          <mxGeometry x="357" y="910" width="60" height="30" as="geometry" />
        </mxCell>
        <mxCell id="AVPFRLGWjPQjqoDi6DAI-35" value="" style="rounded=0;whiteSpace=wrap;html=1;" vertex="1" parent="1">
          <mxGeometry x="800" y="760" width="550" height="210" as="geometry" />
        </mxCell>
        <mxCell id="AVPFRLGWjPQjqoDi6DAI-36" value="入库明细" style="rounded=1;whiteSpace=wrap;html=1;" vertex="1" parent="1">
          <mxGeometry x="830" y="780" width="90" height="50" as="geometry" />
        </mxCell>
        <mxCell id="AVPFRLGWjPQjqoDi6DAI-37" style="edgeStyle=none;rounded=0;orthogonalLoop=1;jettySize=auto;html=1;exitX=1;exitY=0.5;exitDx=0;exitDy=0;" edge="1" parent="1" source="AVPFRLGWjPQjqoDi6DAI-36" target="AVPFRLGWjPQjqoDi6DAI-36">
          <mxGeometry relative="1" as="geometry" />
        </mxCell>
        <mxCell id="AVPFRLGWjPQjqoDi6DAI-38" value="商品台账" style="rounded=1;whiteSpace=wrap;html=1;" vertex="1" parent="1">
          <mxGeometry x="950" y="780" width="90" height="50" as="geometry" />
        </mxCell>
        <mxCell id="AVPFRLGWjPQjqoDi6DAI-39" value="" style="rounded=0;whiteSpace=wrap;html=1;" vertex="1" parent="1">
          <mxGeometry x="1090" y="790" width="240" height="80" as="geometry" />
        </mxCell>
        <mxCell id="AVPFRLGWjPQjqoDi6DAI-40" value="商品库存" style="rounded=1;whiteSpace=wrap;html=1;" vertex="1" parent="1">
          <mxGeometry x="1100" y="810" width="90" height="50" as="geometry" />
        </mxCell>
        <mxCell id="AVPFRLGWjPQjqoDi6DAI-41" value="批次库存" style="rounded=1;whiteSpace=wrap;html=1;" vertex="1" parent="1">
          <mxGeometry x="1210" y="810" width="90" height="50" as="geometry" />
        </mxCell>
        <mxCell id="AVPFRLGWjPQjqoDi6DAI-42" value="货值成本表" style="rounded=1;whiteSpace=wrap;html=1;" vertex="1" parent="1">
          <mxGeometry x="950" y="870" width="90" height="50" as="geometry" />
        </mxCell>
        <mxCell id="AVPFRLGWjPQjqoDi6DAI-43" value="供应商结算" style="rounded=1;whiteSpace=wrap;html=1;" vertex="1" parent="1">
          <mxGeometry x="830" y="870" width="90" height="50" as="geometry" />
        </mxCell>
      </root>
    </mxGraphModel>
  </diagram>
</mxfile>
